<svg width="1440" height="1208" viewBox="0 0 1440 1208" fill="none" xmlns="http://www.w3.org/2000/svg">
<path d="M164.452 573.859C195.531 527.699 241.381 492.176 293.26 473.601L1138.71 170.321C1158.27 163.215 1436.63 76.912 1448.58 59.3201C1455.95 48.4081 1548.37 46.5231 1550.13 35.2524C1551.3 28.1995 1606.14 6.84058 1605.02 6.17745e-05L1503.59 20.8226L1549.97 19.0741C1553.15 38.1484 1684.33 47.6173 1681.11 64.2309C1669.5 131.072 1242.46 247.676 1156.59 278.585L311.135 581.866C291.573 588.972 274.077 602.517 262.226 619.911C250.581 637.369 245.549 656.891 248.347 674.453C254.644 710.956 292.872 728.685 333.35 714.2L1025.12 467.487C1057.55 455.82 1089.63 451.925 1118.46 454.899C1185.25 461.842 1237.46 505.028 1248.5 571.986C1264.52 668.081 1190.73 777.399 1083.62 815.82L376.864 1069.21L237.96 1119.04C236.075 1119.84 233.669 1120.71 231.577 1121.45C225.087 1124.06 218.713 1126.01 212.967 1127.69C173.927 1143.09 15.1929 1192.39 -23.847 1207.78L-68.1334 1122.92L209.973 1018.28L238.43 1007.69C261.968 999.043 286.143 989.669 310.317 980.294L313.872 979.086L413.588 941.371L424.154 937.484C637.839 861.171 851.531 784.398 1065.32 707.888C1105.6 692.878 1133.7 650.885 1128.01 615.037C1122.13 578.663 1083.69 560.87 1043.21 575.354L351.333 822.266C244.333 860.489 143.972 813.862 127.747 717.703C120.18 671.068 133.058 620.153 164.137 573.993L164.452 573.859Z" fill="#F5F5F5"/>
</svg>
